<svg id="visual" viewBox="0 0 960 540" width="960" height="540" xmlns="http://www.w3.org/2000/svg" xmlns:xlink="http://www.w3.org/1999/xlink" version="1.1"><rect width="960" height="540" fill="#FFFFFF"></rect><g><g transform="translate(482 222)"><path d="M118.6 -142C151.4 -113.9 173.9 -74.3 176.7 -34.7C179.5 4.9 162.6 44.5 140.7 80C118.7 115.5 91.8 146.8 55.9 164.6C20.1 182.4 -24.7 186.7 -64.1 173.5C-103.5 160.3 -137.4 129.6 -154.5 92.8C-171.5 55.9 -171.6 12.8 -165.1 -30C-158.7 -72.9 -145.7 -115.5 -117.1 -144.3C-88.5 -173.2 -44.2 -188.2 -0.6 -187.4C42.9 -186.6 85.9 -170.1 118.6 -142Z" fill="#8b72b6"></path></g></g></svg>