<svg id="visual" viewBox="0 0 960 540" width="960" height="540" xmlns="http://www.w3.org/2000/svg" xmlns:xlink="http://www.w3.org/1999/xlink" version="1.1"><rect width="960" height="540" fill="#FFFFFF"></rect><g><g transform="translate(718 272)"><path d="M118.2 -142.4C147.3 -116.5 160.8 -73.6 169.5 -29.2C178.2 15.3 182 61.3 163.3 94.8C144.6 128.4 103.3 149.4 63 157.4C22.6 165.3 -16.9 160.1 -52.7 146.4C-88.5 132.7 -120.6 110.4 -145.7 78.5C-170.8 46.6 -188.9 5.1 -183.9 -34C-178.8 -73 -150.6 -109.4 -116.1 -134.3C-81.6 -159.2 -40.8 -172.4 1.9 -174.7C44.6 -177 89.2 -168.2 118.2 -142.4Z" fill="#8b72b6"></path></g></g></svg>