<svg id="visual" viewBox="0 0 960 540" width="960" height="540" xmlns="http://www.w3.org/2000/svg" xmlns:xlink="http://www.w3.org/1999/xlink" version="1.1"><rect width="960" height="540" fill="#FFFFFF"></rect><g><g transform="translate(613 331)"><path d="M157 -114.6C197.3 -74.5 219.8 -9.6 207.5 48.6C195.2 106.8 148.1 158.3 91.1 183.6C34.1 209 -32.9 208.1 -74.9 178.9C-116.9 149.7 -133.9 92.1 -144.8 35.6C-155.7 -20.9 -160.5 -76.3 -135.3 -113C-110.1 -149.6 -55.1 -167.4 1.6 -168.7C58.3 -170 116.6 -154.7 157 -114.6Z" fill="#F7CACA"></path></g><g transform="translate(98 20)"><path d="M42 -33.5C52.4 -20.5 57.3 -3.2 54.9 14.6C52.4 32.3 42.7 50.4 29 54.8C15.4 59.3 -2.2 50.1 -21.6 41.9C-41.1 33.7 -62.5 26.4 -69 11.7C-75.6 -2.9 -67.3 -25 -53.3 -38.8C-39.3 -52.7 -19.7 -58.3 -1.9 -56.8C15.8 -55.2 31.7 -46.6 42 -33.5Z" fill="#F7CACA"></path></g></g></svg>