<svg id="visual" viewBox="0 0 960 540" width="960" height="540" xmlns="http://www.w3.org/2000/svg" xmlns:xlink="http://www.w3.org/1999/xlink" version="1.1"><rect width="960" height="540" fill="#FFFFFF"></rect><g><g transform="translate(727 258)"><path d="M116.2 -134.5C151.4 -109 181.1 -73.1 187.1 -33.8C193.2 5.6 175.5 48.3 150 81.1C124.5 113.9 91.3 136.8 55.5 147.7C19.7 158.6 -18.6 157.5 -54.6 146.1C-90.6 134.7 -124.3 113 -149.6 80.7C-174.8 48.5 -191.8 5.9 -185.8 -33.6C-179.9 -73.1 -151.1 -109.5 -116.3 -135C-81.5 -160.6 -40.8 -175.3 -0.1 -175.2C40.5 -175.1 81.1 -160 116.2 -134.5Z" fill="#8b72b6"></path></g><g transform="translate(274 257)"><path d="M73 -84.2C95.5 -68.3 114.9 -46 121.6 -19.7C128.2 6.5 122 36.7 106.5 59.5C90.9 82.4 66.1 97.9 40 105.5C13.9 113.1 -13.5 112.7 -40.9 105.6C-68.3 98.6 -95.6 84.8 -109.6 62.4C-123.6 40 -124.2 9 -118.6 -20.6C-113 -50.2 -101.2 -78.3 -80.4 -94.5C-59.6 -110.7 -29.8 -115 -2.2 -112.4C25.3 -109.7 50.6 -100.1 73 -84.2Z" fill="#8b72b6"></path></g></g></svg>