<svg id="visual" viewBox="0 0 960 540" width="960" height="540" xmlns="http://www.w3.org/2000/svg" xmlns:xlink="http://www.w3.org/1999/xlink" version="1.1"><rect width="960" height="540" fill="#FFFFFF"></rect><g><g transform="translate(232 281)"><path d="M119.8 -144.8C153.5 -114.5 177.8 -75.1 182.7 -34.1C187.7 6.8 173.3 49.3 149.5 82.2C125.6 115.1 92.3 138.5 54.4 154.4C16.5 170.4 -25.9 179 -66.2 169.6C-106.4 160.3 -144.5 132.9 -168.1 95.4C-191.7 58 -200.8 10.5 -190.2 -30.7C-179.6 -72 -149.3 -106.9 -114.4 -137C-79.4 -167 -39.7 -192.1 1.7 -194.1C43.1 -196.2 86.1 -175 119.8 -144.8Z" fill="#8b72b6"></path></g></g></svg>