<svg id="visual" viewBox="0 0 960 540" width="960" height="540" xmlns="http://www.w3.org/2000/svg" xmlns:xlink="http://www.w3.org/1999/xlink" version="1.1"><rect width="960" height="540" fill="#8b72b6"></rect><g><g transform="translate(593 311)"><path d="M128 -115.5C153 -70.8 151.3 -18.4 137.9 27.9C124.5 74.2 99.4 114.3 58.3 142.3C17.1 170.3 -40.1 186.2 -89.3 168.9C-138.5 151.6 -179.7 101 -196.5 40.9C-213.4 -19.1 -205.9 -88.7 -169.1 -136.1C-132.3 -183.4 -66.2 -208.6 -7.3 -202.8C51.6 -197 103.1 -160.2 128 -115.5Z" fill="#FFFFFF"></path></g><g transform="translate(21 153)"><path d="M98.2 -70.3C122.5 -47.9 134.1 -7.3 126.3 29.6C118.5 66.6 91.3 99.9 60 108.9C28.7 118 -6.7 102.7 -38.4 85.3C-70 67.9 -97.9 48.3 -101.4 25.4C-104.8 2.5 -83.8 -23.8 -62.8 -45.4C-41.8 -67.1 -20.9 -84.1 8 -90.5C37 -96.9 73.9 -92.7 98.2 -70.3Z" fill="#FFFFFF"></path></g></g></svg>