<svg id="visual" viewBox="0 0 960 540" width="960" height="540" xmlns="http://www.w3.org/2000/svg" xmlns:xlink="http://www.w3.org/1999/xlink" version="1.1"><rect width="960" height="540" fill="#FFFFFF"></rect><g><g transform="translate(365 368)"><path d="M143 -115.2C179.6 -68.1 199.7 -9 188 43.1C176.2 95.3 132.8 140.4 78.8 168.1C24.8 195.9 -39.8 206.3 -89.1 183.2C-138.3 160.1 -172.3 103.6 -182.2 45.8C-192 -12 -177.7 -71.2 -143.3 -117.7C-108.9 -164.3 -54.5 -198.3 -0.6 -197.8C53.2 -197.3 106.4 -162.3 143 -115.2Z" fill="#8b72b6"></path></g><g transform="translate(946 159)"><path d="M98.8 -70.7C128.9 -41.2 154.5 0 145.6 31.1C136.8 62.3 93.6 83.5 50.1 104.6C6.6 125.8 -37.1 146.9 -75 136.2C-112.9 125.5 -145 82.9 -144.8 44.3C-144.7 5.7 -112.3 -29.1 -82.8 -58.5C-53.3 -87.9 -26.7 -112 3.9 -115.1C34.4 -118.2 68.8 -100.3 98.8 -70.7Z" fill="#8b72b6"></path></g></g></svg>