<svg id="visual" viewBox="0 0 960 540" width="960" height="540" xmlns="http://www.w3.org/2000/svg" xmlns:xlink="http://www.w3.org/1999/xlink" version="1.1"><rect width="960" height="540" fill="#8b72b6"></rect><g><g transform="translate(619 188)"><path d="M112.9 -93.9C145.1 -49.6 169.2 -2.7 165.1 46.6C160.9 96 128.5 147.8 80.8 172.7C33 197.7 -30.1 195.7 -72.5 168.4C-115 141.2 -136.7 88.7 -147.8 35.2C-158.8 -18.3 -159.3 -72.8 -132.9 -115.8C-106.5 -158.8 -53.2 -190.3 -6.5 -185.1C40.3 -180 80.7 -138.2 112.9 -93.9Z" fill="none" stroke="#FFFFFF" stroke-width="20"></path></g><g transform="translate(94 506)"><path d="M66.6 -53.6C79.7 -36.7 79.1 -9.4 70.6 11.3C62 32 45.5 46 26.1 55.9C6.8 65.8 -15.2 71.6 -30.9 64.1C-46.6 56.6 -56 35.7 -62.3 12.9C-68.6 -10 -71.7 -34.8 -60.8 -51.3C-49.9 -67.7 -25 -75.6 0.9 -76.3C26.8 -77 53.5 -70.5 66.6 -53.6Z" fill="none" stroke="#FFFFFF" stroke-width="20"></path></g></g></svg>