<svg id="visual" viewBox="0 0 960 540" width="960" height="540" xmlns="http://www.w3.org/2000/svg" xmlns:xlink="http://www.w3.org/1999/xlink" version="1.1"><rect width="960" height="540" fill="#FFFFFF"></rect><g><g transform="translate(724 234)"><path d="M106.7 -128.2C139.8 -99.3 169.5 -67.2 177.1 -30.3C184.7 6.6 170.3 48.3 149.5 88.2C128.7 128.1 101.5 166.2 64.1 182.7C26.6 199.2 -21.1 194.1 -61.9 176.4C-102.7 158.8 -136.7 128.7 -160.6 90.9C-184.5 53.2 -198.4 7.9 -188.7 -30.8C-178.9 -69.5 -145.5 -101.6 -110.1 -130.1C-74.8 -158.6 -37.4 -183.6 -0.3 -183.2C36.7 -182.8 73.5 -157.1 106.7 -128.2Z" fill="#8b72b6"></path></g></g></svg>