<svg id="visual" viewBox="0 0 960 540" width="960" height="540" xmlns="http://www.w3.org/2000/svg" xmlns:xlink="http://www.w3.org/1999/xlink" version="1.1"><rect width="960" height="540" fill="#FFFFFF"></rect><g><g transform="translate(331 205)"><path d="M131.4 -90.4C168.8 -57.8 196.7 -3.3 186.2 42.3C175.6 87.8 126.5 124.3 71.3 152.6C16.2 180.8 -45.1 200.9 -99.3 183.5C-153.6 166.1 -200.8 111.4 -211.2 52.1C-221.7 -7.2 -195.4 -71 -154 -104.5C-112.7 -138 -56.4 -141.2 -4.7 -137.5C47 -133.7 93.9 -123 131.4 -90.4Z" fill="none" stroke="#8b72b6" stroke-width="20"></path></g><g transform="translate(920 446)"><path d="M26 -23.4C32.1 -13 34.5 -2.3 34.9 12.9C35.4 28 33.9 47.6 22.6 56.8C11.4 66 -9.6 64.8 -24.6 55.8C-39.5 46.7 -48.4 29.9 -50 14C-51.5 -1.9 -45.8 -16.9 -36.3 -28.1C-26.7 -39.2 -13.4 -46.5 -1.7 -45.1C9.9 -43.7 19.8 -33.7 26 -23.4Z" fill="none" stroke="#8b72b6" stroke-width="20"></path></g></g></svg>