<svg id="visual" viewBox="0 0 960 540" width="960" height="540" xmlns="http://www.w3.org/2000/svg" xmlns:xlink="http://www.w3.org/1999/xlink" version="1.1"><rect width="960" height="540" fill="#FFFFFF"></rect><g><g transform="translate(237 243)"><path d="M120.3 -136.9C155 -114.2 181.7 -75.5 190.7 -32.4C199.7 10.6 191 57.9 166.6 92.5C142.2 127 102.2 148.8 61.1 160.6C20 172.4 -22 174.2 -59.8 161.6C-97.5 149 -130.9 121.9 -154.2 86.6C-177.5 51.3 -190.7 7.7 -186.6 -35.9C-182.5 -79.4 -161 -122.8 -127 -145.7C-93 -168.6 -46.5 -170.9 -1.9 -168.7C42.8 -166.4 85.5 -159.7 120.3 -136.9Z" fill="#8b72b6"></path></g><g transform="translate(696 262)"><path d="M100.9 -121.2C133.1 -93.2 163.2 -63.6 169.4 -29.7C175.6 4.3 158 42.6 135 73.8C112.1 105.1 83.9 129.2 49.1 147.2C14.3 165.2 -27.3 177.1 -63.2 166.9C-99 156.7 -129.3 124.4 -144.8 88.1C-160.4 51.9 -161.4 11.6 -156.8 -29.9C-152.2 -71.5 -142.1 -114.4 -115 -143.3C-88 -172.2 -44 -187.2 -4.8 -181.4C34.3 -175.7 68.6 -149.2 100.9 -121.2Z" fill="#8b72b6"></path></g></g></svg>