<svg id="visual" viewBox="0 0 960 540" width="960" height="540" xmlns="http://www.w3.org/2000/svg" xmlns:xlink="http://www.w3.org/1999/xlink" version="1.1"><rect width="960" height="540" fill="#FFFFFF"></rect><g><g transform="translate(578 235)"><path d="M127 -88.6C173.7 -42.8 226.8 10.6 226.1 66.7C225.3 122.9 170.6 181.8 110.7 198.6C50.8 215.5 -14.3 190.2 -78.1 160.2C-142 130.3 -204.5 95.6 -217.1 47.6C-229.7 -0.5 -192.2 -61.9 -147.7 -107.3C-103.2 -152.6 -51.6 -181.8 -5.7 -177.2C40.2 -172.7 80.3 -134.4 127 -88.6Z" fill="#F7CACA"></path></g><g transform="translate(15 451)"><path d="M113.8 -81.7C145.7 -50.7 168.5 -3.5 162.1 42C155.7 87.6 120.1 131.5 78.7 143.9C37.4 156.2 -9.7 137.1 -56.9 115.4C-104.1 93.8 -151.4 69.6 -168.4 28.8C-185.3 -11.9 -171.9 -69.2 -138.8 -100.4C-105.7 -131.7 -52.8 -136.9 -5.9 -132.2C40.9 -127.4 81.9 -112.7 113.8 -81.7Z" fill="#F7CACA"></path></g></g></svg>