<svg id="visual" viewBox="0 0 960 540" width="960" height="540" xmlns="http://www.w3.org/2000/svg" xmlns:xlink="http://www.w3.org/1999/xlink" version="1.1"><rect width="960" height="540" fill="#FFFFFF"></rect><g><g transform="translate(714 298)"><path d="M107.5 -121C143.2 -98.1 178.7 -67.9 188.9 -30.3C199.1 7.3 183.8 52.3 158.6 87.5C133.4 122.6 98.2 147.9 60.2 159C22.2 170.1 -18.7 166.9 -57 154.1C-95.2 141.2 -130.7 118.6 -149.6 86.2C-168.6 53.8 -170.8 11.7 -166 -31.6C-161.2 -74.9 -149.3 -119.3 -120.4 -143.4C-91.6 -167.5 -45.8 -171.2 -5 -165.3C35.9 -159.4 71.8 -143.8 107.5 -121Z" fill="#8b72b6"></path></g><g transform="translate(261 292)"><path d="M115 -139.4C143.3 -113.2 156.7 -71.6 163.4 -29.4C170.2 12.8 170.4 55.7 152.2 88.4C133.9 121.2 97.3 143.9 57 159.9C16.8 175.8 -27 185.1 -59.9 170.6C-92.8 156 -114.8 117.5 -137.3 79C-159.8 40.5 -182.8 2.1 -177.9 -32.4C-173 -66.8 -140.2 -97.4 -105.9 -122.5C-71.6 -147.7 -35.8 -167.4 3.8 -171.8C43.3 -176.3 86.6 -165.6 115 -139.4Z" fill="#8b72b6"></path></g></g></svg>