<svg id="visual" viewBox="0 0 960 540" width="960" height="540" xmlns="http://www.w3.org/2000/svg" xmlns:xlink="http://www.w3.org/1999/xlink" version="1.1"><rect width="960" height="540" fill="#FFFFFF"></rect><g><g transform="translate(582 22)"><path d="M129.3 -89.4C167.6 -55.1 198.8 -1.3 192.8 51.6C186.8 104.5 143.6 156.6 94.2 170.9C44.8 185.2 -10.9 161.7 -72.1 137.1C-133.4 112.5 -200.2 86.7 -222.9 36.7C-245.6 -13.3 -224.3 -87.6 -179.8 -123.3C-135.3 -159 -67.6 -156.2 -11.1 -147.4C45.5 -138.6 91 -123.7 129.3 -89.4Z" fill="none" stroke="#8b72b6" stroke-width="20"></path></g><g transform="translate(46 469)"><path d="M77.5 -60.1C101.8 -31.3 123.8 1 117.6 26.2C111.3 51.4 76.8 69.6 40 89.9C3.3 110.1 -35.7 132.6 -71.2 124.5C-106.7 116.4 -138.7 77.7 -144.1 37.6C-149.4 -2.4 -128.1 -43.7 -99.6 -73.5C-71.1 -103.2 -35.6 -121.3 -4.5 -117.7C26.6 -114.1 53.1 -88.9 77.5 -60.1Z" fill="none" stroke="#8b72b6" stroke-width="20"></path></g></g></svg>