<svg id="visual" viewBox="0 0 960 540" width="960" height="540" xmlns="http://www.w3.org/2000/svg" xmlns:xlink="http://www.w3.org/1999/xlink" version="1.1"><rect width="960" height="540" fill="#FFFFFF"></rect><g><g transform="translate(342 262)"><path d="M114.8 -141.2C144.8 -111.6 162.3 -71.7 166.9 -31.5C171.5 8.6 163.1 49 144.8 86.4C126.5 123.8 98.3 158.2 62.7 170.4C27 182.6 -16.1 172.5 -52.6 154.8C-89.2 137.1 -119.3 111.7 -140.8 79C-162.4 46.4 -175.4 6.6 -169 -29.8C-162.6 -66.2 -136.8 -99.2 -105.4 -128.5C-74 -157.8 -37 -183.3 2.7 -186.5C42.4 -189.7 84.8 -170.7 114.8 -141.2Z" fill="#8b72b6"></path></g></g></svg>