<svg id="visual" viewBox="0 0 960 540" width="960" height="540" xmlns="http://www.w3.org/2000/svg" xmlns:xlink="http://www.w3.org/1999/xlink" version="1.1"><rect width="960" height="540" fill="#FFFFFF"></rect><g><g transform="translate(569 315)"><path d="M120.1 -139.2C153 -115.5 175.2 -75.2 184.6 -31.2C194 12.8 190.5 60.3 168.4 95.9C146.3 131.4 105.6 154.9 62.5 169.9C19.3 184.8 -26.3 191.3 -63 176.4C-99.6 161.6 -127.2 125.5 -148 86.8C-168.8 48.1 -182.7 6.7 -175.2 -30.1C-167.8 -66.9 -138.9 -99.1 -106.2 -122.8C-73.4 -146.5 -36.7 -161.8 3.4 -165.9C43.6 -170 87.2 -162.9 120.1 -139.2Z" fill="#8b72b6"></path></g></g></svg>