<svg id="visual" viewBox="0 0 960 540" width="960" height="540" xmlns="http://www.w3.org/2000/svg" xmlns:xlink="http://www.w3.org/1999/xlink" version="1.1"><rect width="960" height="540" fill="#8b72b6"></rect><g><g transform="translate(625 300)"><path d="M156.6 -140.5C185.2 -89 178.4 -24.9 162.8 34.5C147.1 94 122.6 148.8 77.6 176.4C32.6 203.9 -32.9 204.2 -95.6 180.8C-158.2 157.4 -218 110.4 -231.1 52.7C-244.3 -4.9 -210.9 -73.2 -164.6 -128.7C-118.3 -184.2 -59.2 -226.8 2.4 -228.7C64 -230.7 128 -191.9 156.6 -140.5Z" fill="none" stroke="#FFFFFF" stroke-width="20"></path></g><g transform="translate(10 286)"><path d="M90.1 -78.4C106.7 -51 103.1 -14.2 93.9 19.5C84.7 53.2 69.8 83.6 47.2 92.3C24.6 100.9 -5.6 87.8 -34.8 73.3C-64 58.9 -92.1 43.2 -102.2 17.9C-112.2 -7.3 -104.3 -42 -84.2 -70.2C-64.2 -98.3 -32.1 -119.9 2.3 -121.7C36.7 -123.6 73.5 -105.7 90.1 -78.4Z" fill="none" stroke="#FFFFFF" stroke-width="20"></path></g></g></svg>