<svg id="visual" viewBox="0 0 960 540" width="960" height="540" xmlns="http://www.w3.org/2000/svg" xmlns:xlink="http://www.w3.org/1999/xlink" version="1.1"><rect width="960" height="540" fill="#FFFFFF"></rect><g><g transform="translate(671 238)"><path d="M113.1 -133.8C145.1 -107.9 168.5 -70.9 173.7 -32C178.9 6.8 165.9 47.5 144 81.1C122.2 114.6 91.6 141 54.5 158.1C17.5 175.1 -25.9 182.8 -67.2 172.9C-108.4 162.9 -147.5 135.3 -164.7 98.5C-181.8 61.7 -177.1 15.6 -167 -27.3C-156.9 -70.3 -141.5 -110.2 -112.7 -136.8C-84 -163.3 -42 -176.5 -0.7 -175.6C40.5 -174.7 81.1 -159.8 113.1 -133.8Z" fill="#8b72b6"></path></g><g transform="translate(220 242)"><path d="M93.5 -113.8C115.1 -93.3 122.3 -58.1 127.8 -23.1C133.3 11.8 136.9 46.5 125.2 77.4C113.4 108.3 86.3 135.3 54.4 145.1C22.5 154.8 -14.2 147.3 -43.5 131.4C-72.7 115.5 -94.6 91.4 -113.5 63.3C-132.5 35.1 -148.6 3.1 -144.2 -26C-139.8 -55.1 -114.9 -81.3 -87.5 -100.8C-60.1 -120.3 -30 -133.2 3 -136.7C35.9 -140.2 71.9 -134.4 93.5 -113.8Z" fill="#8b72b6"></path></g></g></svg>