<svg id="visual" viewBox="0 0 960 540" width="960" height="540" xmlns="http://www.w3.org/2000/svg" xmlns:xlink="http://www.w3.org/1999/xlink" version="1.1"><rect width="960" height="540" fill="#8b72b6"></rect><g><g transform="translate(910 372)"><path d="M131.2 -101.5C174.9 -49.8 218.7 5.1 217.5 65.6C216.4 126.1 170.4 192.2 111.3 214.1C52.3 236 -19.9 213.5 -85.5 180.7C-151.1 147.9 -210.1 104.7 -219.1 53.4C-228.2 2.1 -187.2 -57.3 -142.3 -109.3C-97.5 -161.3 -48.7 -205.9 -2.5 -203.9C43.7 -201.9 87.5 -153.3 131.2 -101.5Z" fill="#FFFFFF"></path></g><g transform="translate(50 83)"><path d="M132 -104.8C167 -61.4 188.6 -6.7 176.9 38.7C165.2 84.1 120.2 120.1 73.2 137C26.2 153.8 -22.8 151.4 -76.9 134.8C-131 118.3 -190.2 87.6 -203.7 42.5C-217.2 -2.7 -185 -62.3 -143.4 -107.2C-101.9 -152.1 -50.9 -182.3 -1.2 -181.3C48.5 -180.3 97 -148.2 132 -104.8Z" fill="#FFFFFF"></path></g></g></svg>